<?xml version="1.0" standalone="no"?>
<!DOCTYPE svg PUBLIC "-//W3C//DTD SVG 20010904//EN"
 "http://www.w3.org/TR/2001/REC-SVG-20010904/DTD/svg10.dtd">
<svg version="1.0" xmlns="http://www.w3.org/2000/svg"
 width="4000.000000pt" height="4000.000000pt" viewBox="0 0 4000.000000 4000.000000"
 preserveAspectRatio="xMidYMid meet">
<metadata>
Created by potrace 1.11, written by Peter Selinger 2001-2013
</metadata>
<g transform="translate(0.000000,4000.000000) scale(0.100000,-0.100000)"
fill="#000000" stroke="none">
<path d="M9680 36863 c-759 -78 -1401 -376 -1921 -893 -480 -477 -758 -1024
-881 -1736 l-23 -129 -2 -10290 c-1 -8687 1 -10309 12 -10410 69 -601 308
-1162 693 -1629 100 -121 303 -322 427 -422 439 -355 927 -570 1510 -666 l140
-23 10300 -3 c7520 -2 10331 0 10415 8 394 38 739 135 1084 305 319 156 568
335 827 594 514 514 811 1139 891 1876 9 90 13 367 13 1120 l0 1000 -60 8
c-378 48 -889 156 -1240 262 -206 62 -540 174 -610 205 -11 5 -76 31 -145 59
-1325 526 -2541 1451 -3421 2601 -114 148 -379 523 -379 535 0 3 -21 37 -47
77 -27 40 -53 82 -59 93 -6 11 -38 65 -71 120 -582 972 -966 2144 -1087 3315
-37 358 -52 930 -33 1250 64 1053 299 2015 721 2948 85 188 292 591 365 712 5
8 44 73 87 144 326 542 745 1076 1205 1535 191 191 275 269 469 436 1110 956
2512 1610 3965 1850 83 14 173 28 200 31 28 4 70 9 95 13 l45 6 0 1055 c0 580
-3 1110 -7 1177 -33 553 -235 1114 -566 1578 -185 259 -428 505 -682 691 -421
309 -846 484 -1394 577 l-131 22 -10335 1 c-5684 0 -10351 -1 -10370 -3z"/>
<path d="M32785 25191 c-564 -100 -1026 -495 -1206 -1031 -51 -153 -70 -259
-76 -435 -6 -171 4 -281 38 -423 138 -576 602 -1027 1187 -1153 152 -32 412
-37 568 -11 568 98 1031 489 1213 1027 168 496 77 1038 -244 1450 -239 307
-578 510 -962 575 -149 26 -376 26 -518 1z"/>
<path d="M31140 8743 c-404 -30 -794 -238 -1045 -558 -162 -207 -266 -440
-310 -700 -20 -118 -23 -351 -5 -474 101 -722 681 -1249 1400 -1274 196 -7
365 17 545 78 98 33 100 34 120 15 19 -18 40 -19 355 -19 l335 1 25 23 25 24
0 795 -1 795 -22 24 -23 25 -620 -1 -621 0 -24 -26 -24 -26 0 -356 0 -355 28
-26 c27 -26 29 -26 170 -26 78 1 145 -1 148 -5 9 -9 -136 -75 -201 -92 -77
-20 -221 -19 -299 1 -285 74 -493 374 -473 684 18 268 190 504 433 592 83 29
246 36 333 13 110 -28 202 -82 300 -174 30 -28 56 -51 58 -51 2 0 100 64 216
143 117 79 267 181 335 226 119 81 122 84 122 120 0 33 -9 46 -89 127 -217
223 -444 359 -721 433 -126 34 -340 54 -470 44z"/>
<path d="M9125 8728 c-49 -4 -136 -19 -191 -33 -575 -144 -1012 -615 -1114
-1201 -48 -278 -16 -582 90 -840 199 -487 629 -829 1150 -915 109 -18 346 -15
465 5 353 61 671 252 928 557 26 31 47 59 47 62 0 4 -429 365 -622 523 -43 35
-74 21 -158 -68 -85 -92 -186 -158 -288 -188 -63 -19 -90 -22 -180 -18 -128 6
-192 26 -292 93 -90 60 -151 130 -200 230 -54 108 -71 181 -71 300 0 80 5 116
25 180 61 190 197 338 375 406 77 30 233 37 318 15 69 -17 186 -73 250 -119
50 -36 0 -71 381 267 267 236 292 261 292 290 -1 24 -10 39 -43 67 -242 207
-508 335 -788 379 -93 14 -267 18 -374 8z"/>
<path d="M11880 8733 c-336 -22 -696 -184 -939 -423 -312 -307 -472 -702 -457
-1134 19 -561 343 -1056 851 -1301 581 -280 1259 -164 1715 294 215 216 345
453 412 752 20 90 23 131 23 309 0 178 -3 219 -23 309 -67 298 -198 537 -412
752 -226 226 -500 370 -811 424 -84 14 -269 24 -359 18z m312 -886 c243 -94
403 -319 413 -582 12 -296 -149 -550 -413 -652 -90 -35 -256 -43 -352 -18
-365 95 -573 516 -432 875 75 192 228 336 417 392 92 27 277 20 367 -15z"/>
<path d="M13811 8635 c-19 -26 -20 -41 -20 -1399 l0 -1373 27 -26 27 -26 386
0 387 1 21 22 c21 22 21 29 23 583 l3 560 190 -315 c247 -410 241 -401 289
-423 68 -31 156 -21 202 22 12 11 116 176 231 366 l208 345 3 -558 2 -557 25
-23 25 -23 384 1 384 0 24 26 24 27 0 1376 c-1 1339 -2 1378 -20 1398 -19 21
-26 21 -391 21 -371 0 -372 0 -406 -23 -26 -17 -92 -119 -272 -417 -130 -217
-261 -434 -290 -482 l-53 -87 -283 474 c-156 260 -293 482 -305 494 -41 39
-67 41 -441 41 l-364 0 -20 -25z"/>
<path d="M17143 8634 l-23 -23 0 -1376 1 -1376 25 -24 26 -24 389 0 c373 0
389 1 414 20 l25 20 0 390 0 389 23 0 c339 2 563 10 628 23 234 47 437 154
595 311 194 194 286 412 287 676 0 271 -95 487 -307 695 -184 181 -412 288
-666 314 -47 4 -379 8 -739 8 l-654 0 -24 -23z m1326 -749 c51 -10 126 -89
145 -156 30 -101 -13 -203 -106 -250 -37 -19 -58 -20 -256 -21 -120 0 -222 1
-228 1 -7 1 -10 72 -10 214 l0 212 81 5 c99 6 328 3 374 -5z"/>
<path d="M20002 8644 l-22 -15 1 -942 c1 -881 2 -948 19 -1032 77 -367 348
-679 720 -828 213 -85 439 -112 635 -76 511 95 891 446 985 910 19 93 20 139
20 1032 0 892 -1 935 -18 950 -17 15 -61 17 -430 17 -399 0 -413 -1 -432 -20
-20 -20 -20 -33 -20 -878 0 -954 2 -921 -67 -1001 -132 -155 -395 -124 -485
57 l-23 47 -3 880 c-2 854 -3 880 -22 897 -18 17 -48 18 -427 18 -354 0 -412
-2 -431 -16z"/>
<path d="M22657 8631 c-22 -26 -22 -29 -22 -359 l1 -332 48 -49 48 -48 321 -1
c177 0 330 -1 340 -1 16 -1 17 -55 17 -996 l0 -996 23 -23 23 -23 391 0 391 0
26 24 26 24 0 994 0 995 33 1 c17 0 169 1 337 1 l305 0 48 46 47 46 0 341 c0
341 0 342 -22 362 l-23 21 -1168 0 -1167 -1 -23 -26z"/>
<path d="M25572 8637 l-22 -23 0 -1375 1 -1374 24 -27 24 -28 404 3 c382 2
406 3 426 21 l21 19 0 1382 0 1382 -23 21 c-23 22 -26 22 -428 22 l-406 0 -21
-23z"/>
<path d="M26983 8638 c-21 -23 -21 -23 -21 -1398 l0 -1375 25 -27 25 -27 388
0 388 0 21 23 c21 22 21 28 23 609 l3 587 150 -237 c83 -130 256 -403 386
-607 l236 -371 389 -2 390 -2 27 24 26 25 0 1377 -1 1378 -21 23 -20 22 -392
0 -392 0 -21 -23 -22 -23 0 -589 c0 -523 -2 -587 -15 -568 -8 11 -74 116 -147
232 -73 116 -241 382 -373 591 l-240 380 -396 0 -396 0 -20 -22z"/>
<path d="M8137 4612 c-16 -3 -17 -56 -17 -683 l0 -679 90 0 90 0 0 299 0 298
348 1 c366 0 396 3 482 47 45 23 113 88 142 135 53 87 66 252 28 353 -40 107
-144 191 -267 217 -44 10 -853 20 -896 12z m884 -188 c86 -40 122 -100 121
-201 -1 -71 -27 -131 -69 -161 -63 -43 -84 -46 -435 -50 l-338 -4 0 220 0 220
338 -1 c321 -2 339 -3 383 -23z"/>
<path d="M9693 4612 l-63 -3 0 -679 0 -680 90 0 90 0 0 299 0 300 258 0 257 1
169 -300 168 -300 95 0 95 0 -46 83 c-24 45 -99 179 -165 297 -100 181 -117
216 -103 222 9 4 39 14 66 24 109 39 210 174 224 298 25 220 -84 383 -286 426
-43 10 -707 19 -849 12z m838 -188 c86 -40 121 -98 120 -200 -1 -101 -40 -159
-131 -194 -26 -11 -120 -15 -372 -18 l-338 -3 0 221 0 221 338 -3 c318 -3 340
-4 383 -24z"/>
<path d="M11193 4612 l-23 -3 0 -680 c0 -536 3 -679 13 -679 23 -1 1022 -1
1065 -1 l42 1 0 80 0 80 -472 2 -473 3 0 230 c-1 127 1 235 3 241 2 8 76 12
255 12 139 0 259 1 268 1 14 1 17 13 15 81 l-1 80 -267 0 c-207 0 -268 3 -269
13 -4 41 -5 354 -1 364 3 9 96 12 380 12 208 0 407 0 445 0 l67 1 0 80 0 80
-77 0 c-699 4 -952 4 -970 2z"/>
<path d="M14173 4612 l-63 -3 0 -679 0 -679 28 -3 c15 -2 55 -1 90 0 l62 4 0
678 0 678 -27 3 c-16 2 -56 3 -90 1z"/>
<path d="M14763 4612 l-33 -3 0 -680 0 -680 383 3 382 4 80 27 c257 86 421
292 443 559 20 240 -40 427 -184 572 -111 110 -266 181 -423 192 -85 6 -598
11 -648 6z m676 -178 c189 -33 337 -167 386 -350 19 -71 21 -229 5 -299 -37
-151 -142 -275 -280 -329 -87 -35 -185 -45 -420 -43 l-224 2 -1 500 c-1 275 1
507 3 517 3 14 28 16 230 16 140 0 255 -6 301 -14z"/>
<path d="M16413 4612 l-63 -3 0 -679 0 -680 560 0 560 0 0 80 0 80 -469 0
c-366 0 -470 3 -473 13 -3 10 -3 390 1 453 1 21 3 21 260 21 142 0 262 3 268
6 5 3 9 39 9 79 l-1 73 -266 3 -267 2 -4 23 c-2 12 -3 99 -3 192 l1 170 324 2
c179 1 380 2 448 3 l122 0 0 80 c0 44 -3 80 -7 80 -44 3 -954 4 -1000 2z"/>
<path d="M17793 4612 l-43 -3 0 -680 0 -679 88 0 89 0 0 493 c0 270 2 494 5
497 3 3 34 -29 69 -70 35 -41 76 -88 90 -105 15 -16 75 -87 135 -156 60 -69
179 -206 264 -305 85 -98 189 -218 230 -266 75 -88 75 -88 123 -88 l47 0 0
679 0 679 -47 4 c-27 1 -67 2 -90 0 l-43 -3 -2 -499 -3 -498 -220 255 c-121
141 -225 261 -230 267 -6 6 -64 74 -130 151 -66 77 -124 145 -130 151 -5 6
-32 37 -60 70 -91 107 -95 110 -142 106z"/>
<path d="M19000 4612 c-6 -2 -10 -39 -10 -83 l0 -79 48 0 c26 -1 152 -1 280
-1 l232 0 0 -42 c1 -23 1 -293 1 -599 l0 -558 90 0 89 0 0 599 0 600 283 0
282 0 3 80 3 81 -88 0 c-775 4 -1205 4 -1213 2z"/>
<path d="M12895 4604 c-172 -36 -302 -121 -356 -231 -18 -37 -23 -66 -23 -128
-1 -71 2 -86 29 -134 48 -87 132 -144 255 -174 73 -18 264 -42 414 -52 208
-14 325 -74 356 -183 13 -49 13 -59 -5 -118 -26 -89 -122 -162 -255 -194 -83
-21 -239 -17 -344 9 -99 24 -248 90 -335 149 -31 21 -61 41 -68 45 -8 5 -30
-19 -62 -67 l-51 -74 53 -38 c128 -93 293 -163 446 -189 109 -19 301 -19 399
0 167 34 317 138 373 260 84 182 11 383 -177 482 -103 54 -185 70 -449 88
-117 8 -250 32 -300 54 -127 58 -139 190 -24 267 93 62 232 83 389 59 140 -21
235 -58 363 -143 37 -24 69 -43 70 -41 2 2 22 32 45 66 23 33 42 65 42 70 0
11 -150 105 -210 131 -143 64 -281 92 -437 91 -65 -1 -127 -3 -138 -5z"/>
<path d="M20847 4572 l-47 -3 0 -497 c1 -296 5 -515 11 -542 26 -118 93 -207
190 -253 97 -45 201 -60 388 -54 145 4 175 8 241 31 96 33 146 69 191 136 66
98 69 125 69 683 l0 496 -37 3 c-21 2 -59 1 -85 0 l-48 -4 0 -463 c0 -481 -4
-538 -43 -615 -42 -84 -168 -122 -373 -114 -154 5 -247 38 -284 101 -42 71
-43 91 -49 602 l-6 494 -35 1 c-19 1 -56 0 -83 -2z"/>
<path d="M23279 4572 l-57 -3 0 -480 c1 -264 -1 -481 -3 -483 -2 -2 -192 214
-423 480 l-419 484 -47 0 -47 0 0 -660 0 -660 87 0 87 0 0 481 c1 264 2 482 4
483 2 2 193 -214 424 -480 l419 -484 47 0 46 0 0 659 0 659 -31 4 c-17 1 -56
2 -87 0z"/>
<path d="M23848 4572 l-28 -3 0 -660 0 -659 85 0 85 0 0 660 c0 521 -3 660
-12 661 -69 3 -107 3 -130 1z"/>
<path d="M25469 4572 l-66 -3 -68 -142 c-38 -78 -101 -209 -141 -292 -39 -82
-114 -238 -166 -345 -52 -107 -101 -210 -109 -227 -7 -18 -16 -33 -20 -33 -6
0 -117 228 -365 747 l-139 292 -92 1 -92 0 81 -167 c44 -93 174 -364 288 -603
114 -239 220 -461 236 -492 l28 -58 56 0 55 0 37 78 c20 42 87 181 148 307 62
127 138 284 170 350 32 66 108 223 169 349 61 126 111 230 111 231 0 6 -61 10
-121 7z"/>
<path d="M25832 4572 l-42 -3 0 -660 c0 -515 3 -659 13 -659 16 -1 876 -1 995
0 l92 0 0 75 0 75 -461 2 -462 3 1 210 c0 116 1 222 1 236 l1 27 258 -1 257
-1 3 77 3 77 -263 0 -263 0 2 167 c1 93 2 180 2 194 l1 26 418 1 c229 0 424 1
433 1 14 1 16 14 16 76 0 74 0 75 -26 75 -149 3 -946 4 -979 2z"/>
<path d="M27198 4572 c-21 -2 -39 -9 -39 -15 -1 -7 -2 -303 -3 -659 -1 -512 2
-648 12 -649 15 -1 49 -1 112 0 l50 1 0 289 0 290 251 -2 252 -2 162 -285 162
-285 54 -5 c30 -3 73 -3 95 0 l41 5 -60 105 c-33 58 -72 128 -88 155 -15 28
-61 109 -101 180 l-74 130 58 21 c111 41 195 127 230 236 29 91 22 214 -16
291 -52 106 -164 180 -295 193 -60 6 -741 11 -803 6z m834 -179 c88 -40 124
-110 116 -222 -7 -105 -61 -159 -179 -181 -28 -6 -184 -10 -345 -10 l-294 0 0
219 0 220 328 -3 c312 -1 329 -3 374 -23z"/>
<path d="M30164 4571 c-2 -2 -4 -302 -4 -665 l0 -661 57 2 c32 1 70 2 86 2
l27 1 0 660 c0 521 -3 660 -12 661 -88 3 -150 3 -154 0z"/>
<path d="M30463 4572 l-33 -3 0 -75 0 -74 43 -1 c23 0 147 -1 275 -1 l232 -1
0 -41 c1 -23 1 -285 1 -583 l1 -542 31 -3 c18 -2 57 -2 88 0 l56 4 -1 581 0
582 237 1 237 1 82 -91 c73 -79 129 -142 163 -180 6 -6 48 -54 95 -106 47 -52
93 -103 103 -114 15 -18 17 -49 17 -347 l0 -328 38 -3 c20 -2 58 -1 85 0 l47
4 0 328 0 328 58 64 c31 35 91 102 132 147 41 46 82 92 91 103 15 17 57 63
242 267 37 41 65 76 62 79 -2 2 -51 4 -107 4 -75 -1 -106 -5 -113 -15 -6 -8
-46 -54 -90 -103 -44 -48 -100 -111 -125 -139 -25 -27 -47 -52 -50 -55 -3 -3
-25 -27 -49 -55 -25 -27 -65 -72 -90 -99 l-45 -49 -60 64 c-34 36 -97 105
-141 154 -255 283 -267 295 -294 296 -126 2 -1193 3 -1218 1z"/>
<path d="M28933 4555 c-138 -30 -262 -118 -309 -219 -28 -61 -33 -166 -9 -223
28 -67 81 -120 158 -158 84 -41 228 -68 456 -85 220 -16 289 -38 354 -109 43
-48 51 -73 45 -146 -17 -201 -324 -298 -643 -203 -81 24 -206 84 -287 139 -31
22 -59 39 -61 39 -2 0 -26 -32 -52 -71 -55 -81 -60 -70 65 -144 92 -55 196
-99 298 -126 113 -30 350 -37 462 -15 165 34 302 122 365 238 28 49 30 60 30
158 0 98 -2 109 -30 158 -53 97 -160 173 -292 207 -29 8 -111 19 -181 25 -390
32 -473 55 -512 142 -32 72 -8 137 67 187 73 49 141 65 268 64 168 -2 307 -48
453 -149 35 -24 65 -44 67 -44 8 0 98 140 93 145 -21 22 -186 111 -252 136
-168 65 -398 88 -553 54z"/>
</g>
</svg>
